<svg width="44" height="44" viewBox="0 0 44 44" fill="none" xmlns="http://www.w3.org/2000/svg">
<g clip-path="url(#clip0_502_188)">
<path d="M12.375 23.5417C12.375 22.4371 13.2704 21.5417 14.375 21.5417H29.625C30.7296 21.5417 31.625 22.4371 31.625 23.5417V32.375C31.625 33.4796 30.7296 34.375 29.625 34.375H14.375C13.2704 34.375 12.375 33.4796 12.375 32.375V23.5417Z" stroke="url(#paint0_linear_502_188)" stroke-width="2"/>
<path d="M17.875 21.1259L17.875 11.625C17.875 10.5204 18.7704 9.62501 19.875 9.62502L24.125 9.62507C25.2296 9.62508 26.125 10.5205 26.125 11.6251L26.125 15.1251" stroke="url(#paint1_linear_502_188)" stroke-width="2" stroke-linecap="round"/>
<path d="M20.1676 27.8977C20.1597 28.1383 20.1992 28.3782 20.2839 28.6035C20.3686 28.8289 20.4969 29.0353 20.6614 29.2111C20.826 29.3869 21.0235 29.5286 21.2428 29.628C21.462 29.7274 21.6987 29.7827 21.9393 29.7907C22.18 29.7986 22.4198 29.7591 22.6452 29.6744C22.8705 29.5897 23.077 29.4614 23.2527 29.2969C23.4285 29.1323 23.5702 28.9348 23.6696 28.7155C23.7691 28.4963 23.8243 28.2596 23.8323 28.019C23.8403 27.7783 23.8007 27.5385 23.716 27.3131C23.6313 27.0878 23.503 26.8813 23.3385 26.7055C23.174 26.5298 22.9764 26.3881 22.7572 26.2887C22.5379 26.1892 22.3012 26.134 22.0606 26.126C21.82 26.118 21.5801 26.1576 21.3548 26.2423C21.1294 26.327 20.9229 26.4553 20.7472 26.6198C20.5714 26.7843 20.4297 26.9819 20.3303 27.2011C20.2309 27.4204 20.1756 27.6571 20.1676 27.8977Z" fill="url(#paint2_linear_502_188)"/>
</g>
<defs>
<linearGradient id="paint0_linear_502_188" x1="31.4885" y1="33.8507" x2="31.7588" y2="21.5476" gradientUnits="userSpaceOnUse">
<stop stop-color="#54CFFF"/>
<stop offset="1" stop-color="#6E64FF"/>
</linearGradient>
<linearGradient id="paint1_linear_502_188" x1="25.788" y1="9.70657" x2="17.8794" y2="9.51958" gradientUnits="userSpaceOnUse">
<stop stop-color="#54CFFF"/>
<stop offset="1" stop-color="#6E64FF"/>
</linearGradient>
<linearGradient id="paint2_linear_502_188" x1="23.8073" y1="29.6419" x2="23.9231" y2="26.1288" gradientUnits="userSpaceOnUse">
<stop stop-color="#54CFFF"/>
<stop offset="1" stop-color="#6E64FF"/>
</linearGradient>
<clipPath id="clip0_502_188">
<rect width="44" height="44" fill="white"/>
</clipPath>
</defs>
</svg>
