<svg width="180" height="49" viewBox="0 0 180 49" fill="none" xmlns="http://www.w3.org/2000/svg">
<path d="M75.48 34L69.63 13H72.99L78.09 31.96H78.48L83.55 13H86.91L81.09 34H75.48ZM90.9642 34V13H94.2042V34H90.9642ZM99.7814 34V13H113.011V15.94H103.021V21.97H112.171V24.91H103.021V31.06H113.161V34H99.7814ZM119.629 34L116.539 13H119.779L122.299 31.81H122.779L126.019 13H131.689L134.929 31.81H135.409L137.899 13H141.139L138.049 34H132.379L129.079 14.92H128.599L125.329 34H119.629ZM145.541 34V13H158.501V15.94H148.781V22H157.721V24.94H148.781V34H145.541ZM161.474 34L167.924 23.41L161.564 13H165.284L170.024 21.1H170.504L175.274 13H178.994L172.634 23.41L179.084 34H175.334L170.504 25.72H170.024L165.194 34H161.474Z" fill="#DBDBDB"/>
<path fill-rule="evenodd" clip-rule="evenodd" d="M24.9707 6.61923L9.43961 17.5099L24.9707 28.4005V35.0197L0 17.5099L24.9707 0V6.61923Z" fill="url(#paint0_linear_120_74)"/>
<path fill-rule="evenodd" clip-rule="evenodd" d="M25.0293 42.3808L40.5604 31.4901L25.0293 20.5995V13.9803L50 31.4901L25.0293 49V42.3808Z" fill="url(#paint1_linear_120_74)"/>
<defs>
<linearGradient id="paint0_linear_120_74" x1="24.7936" y1="33.589" x2="26.3429" y2="0.0716191" gradientUnits="userSpaceOnUse">
<stop stop-color="#54CFFF"/>
<stop offset="1" stop-color="#6E64FF"/>
</linearGradient>
<linearGradient id="paint1_linear_120_74" x1="25.2064" y1="15.411" x2="23.6571" y2="48.9284" gradientUnits="userSpaceOnUse">
<stop stop-color="#54CFFF"/>
<stop offset="1" stop-color="#6E64FF"/>
</linearGradient>
</defs>
</svg>
